<?xml version="1.0" encoding="utf-8"?>
<svg xmlns="http://www.w3.org/2000/svg">
  <symbol id="plus" width="24px" height="24px" viewBox="0 0 28 28" fill="aliceblue"
    xmlns:xlink="http://www.w3.org/1999/xlink">
    <path
      d="M14,2 C20.627417,2 26,7.372583 26,14 C26,20.627417 20.627417,26 14,26 C7.372583,26 2,20.627417 2,14 C2,7.372583 7.372583,2 14,2 Z M14,3.5 C8.20101013,3.5 3.5,8.20101013 3.5,14 C3.5,19.7989899 8.20101013,24.5 14,24.5 C19.7989899,24.5 24.5,19.7989899 24.5,14 C24.5,8.20101013 19.7989899,3.5 14,3.5 Z M14,8 C14.4142136,8 14.75,8.33578644 14.75,8.75 L14.75,13.25 L19.25,13.25 C19.6642136,13.25 20,13.5857864 20,14 C20,14.4142136 19.6642136,14.75 19.25,14.75 L14.75,14.75 L14.75,19.25 C14.75,19.6642136 14.4142136,20 14,20 C13.5857864,20 13.25,19.6642136 13.25,19.25 L13.25,14.75 L8.75,14.75 C8.33578644,14.75 8,14.4142136 8,14 C8,13.5857864 8.33578644,13.25 8.75,13.25 L13.25,13.25 L13.25,8.75 C13.25,8.33578644 13.5857864,8 14,8 Z"
      id="🎨-Color">
    </path>
  </symbol>

  <symbol id="logout" width="800px" height="800px" viewBox="0 0 24 24" fill="none" xmlns="http://www.w3.org/2000/svg">
    <path opacity="0.5"
      d="M9.00195 7C9.01406 4.82497 9.11051 3.64706 9.87889 2.87868C10.7576 2 12.1718 2 15.0002 2L16.0002 2C18.8286 2 20.2429 2 21.1215 2.87868C22.0002 3.75736 22.0002 5.17157 22.0002 8L22.0002 16C22.0002 18.8284 22.0002 20.2426 21.1215 21.1213C20.2429 22 18.8286 22 16.0002 22H15.0002C12.1718 22 10.7576 22 9.87889 21.1213C9.11051 20.3529 9.01406 19.175 9.00195 17"
      stroke="#1C274C" stroke-width="1.5" stroke-linecap="round" />
    <path d="M15 12L2 12M2 12L5.5 9M2 12L5.5 15" stroke="#1C274C" stroke-width="1.5" stroke-linecap="round"
      stroke-linejoin="round" />
  </symbol>

</svg>